<?xml version="1.0" standalone="no"?>
<!DOCTYPE svg PUBLIC "-//W3C//DTD SVG 20010904//EN"
 "http://www.w3.org/TR/2001/REC-SVG-20010904/DTD/svg10.dtd">
<svg version="1.0" xmlns="http://www.w3.org/2000/svg"
 width="1501.000000pt" height="1501.000000pt" viewBox="0 0 1501.000000 1501.000000"
 preserveAspectRatio="xMidYMid meet">
<metadata>
Created by potrace 1.11, written by Peter Selinger 2001-2013
</metadata>
<g transform="translate(0.000000,1501.000000) scale(0.100000,-0.100000)"
fill="#000000" stroke="none">
<path d="M5650 14002 c-25 -3 -43 -29 -156 -231 -18 -31 -89 -155 -159 -276
-71 -121 -145 -249 -165 -285 -20 -36 -120 -209 -222 -386 -103 -176 -198
-340 -211 -365 -14 -24 -49 -84 -78 -134 -28 -49 -77 -133 -107 -185 -30 -52
-63 -108 -73 -125 -10 -16 -22 -37 -26 -45 -4 -8 -49 -87 -100 -174 -51 -87
-93 -160 -93 -162 0 -2 -20 -36 -43 -76 -24 -40 -81 -138 -127 -218 -46 -80
-114 -197 -152 -261 -37 -64 -68 -120 -68 -123 0 -4 -8 -19 -19 -34 -20 -30
-113 -188 -124 -212 -4 -8 -15 -28 -26 -45 -18 -30 -29 -49 -93 -160 -19 -33
-77 -134 -130 -225 -88 -152 -160 -277 -416 -720 -52 -91 -106 -182 -118 -202
-13 -21 -24 -40 -24 -43 0 -3 -11 -22 -23 -43 -13 -20 -35 -57 -49 -82 -14
-25 -91 -159 -172 -298 -80 -140 -146 -257 -146 -262 0 -5 -4 -10 -8 -12 -5
-1 -44 -66 -88 -143 -43 -76 -91 -160 -105 -185 -14 -25 -35 -61 -46 -80 -11
-19 -55 -96 -98 -170 -44 -74 -88 -152 -99 -172 -12 -20 -78 -135 -147 -255
-70 -120 -175 -301 -234 -403 -59 -102 -119 -205 -133 -230 -14 -25 -66 -115
-115 -200 -49 -85 -101 -175 -115 -200 -29 -51 -61 -106 -79 -135 -7 -11 -26
-45 -43 -75 -17 -30 -35 -62 -40 -70 -9 -14 -82 -139 -128 -220 -11 -19 -61
-107 -112 -195 -97 -167 -184 -319 -228 -395 -14 -25 -45 -78 -69 -118 -24
-41 -43 -75 -43 -78 0 -2 -16 -28 -35 -58 -19 -30 -35 -58 -35 -61 0 -4 -8
-19 -19 -33 -10 -15 -30 -49 -45 -75 -25 -46 -106 -187 -359 -625 l-106 -183
56 -97 c31 -53 96 -167 146 -252 89 -154 109 -188 147 -255 47 -81 61 -106
130 -225 40 -68 81 -138 90 -155 9 -16 59 -102 110 -190 51 -88 101 -175 111
-192 10 -18 69 -119 130 -225 61 -106 123 -213 137 -238 14 -25 32 -57 41 -72
18 -31 178 -307 201 -347 29 -50 85 -146 97 -166 7 -11 16 -27 20 -35 4 -8 27
-49 52 -90 24 -41 61 -104 81 -140 20 -36 88 -153 150 -260 62 -107 127 -220
144 -250 l32 -55 1880 -3 1880 -2 17 32 c20 41 64 118 126 223 26 44 94 161
151 260 57 99 133 232 170 295 37 63 78 135 92 160 22 39 137 238 189 325 10
17 26 46 37 65 29 53 389 677 426 740 19 30 45 75 58 100 23 41 142 247 428
740 58 102 121 211 139 243 30 53 34 56 46 40 11 -16 141 -241 358 -618 44
-77 116 -200 159 -274 43 -73 78 -135 78 -136 0 -2 61 -108 135 -235 74 -127
135 -233 135 -236 0 -2 11 -21 24 -42 26 -41 120 -202 158 -272 14 -25 49 -85
78 -135 29 -49 62 -106 72 -125 11 -19 72 -125 136 -235 64 -110 123 -213 131
-228 9 -16 21 -36 26 -45 10 -18 148 -256 175 -304 8 -14 55 -96 105 -182 l90
-156 1877 0 1876 0 39 68 c21 37 42 75 48 84 5 9 39 67 75 130 72 124 85 147
190 328 79 136 100 173 129 223 10 17 50 87 90 154 39 68 71 126 71 129 0 4 6
15 14 23 7 9 24 36 38 61 13 25 36 64 51 87 15 24 27 45 27 47 0 3 47 85 104
183 56 98 137 238 180 311 42 72 110 190 151 261 41 71 83 145 93 163 11 18
58 100 106 181 47 82 86 151 86 153 0 2 12 23 27 47 26 41 260 446 311 537 13
25 29 50 34 57 11 14 2 47 -22 83 -10 14 -80 133 -156 265 -75 132 -148 258
-161 280 -12 22 -27 49 -33 60 -6 11 -19 34 -29 50 -10 17 -28 48 -41 70 -56
100 -342 593 -377 650 -7 11 -16 27 -20 35 -4 8 -26 47 -48 85 -23 39 -53 90
-67 115 -14 25 -34 61 -46 80 -134 231 -672 1162 -703 1216 -10 18 -29 51 -43
73 -15 22 -26 43 -26 46 0 2 -15 28 -33 57 -18 29 -38 64 -45 78 l-13 25
-1873 0 c-1871 0 -1874 0 -1864 20 6 11 85 148 176 305 91 157 176 305 190
330 14 25 45 78 69 118 24 41 43 75 43 77 0 2 34 61 76 131 42 71 85 145 95
164 11 19 33 58 50 85 16 28 34 59 39 70 6 11 18 34 29 50 18 30 232 401 268
465 11 19 53 91 93 160 40 69 141 244 225 390 218 379 214 374 225 390 5 8 33
58 63 110 30 52 93 161 139 241 73 126 83 148 72 163 -7 10 -74 124 -149 254
-75 130 -140 244 -145 252 -49 84 -82 142 -100 175 -13 22 -31 54 -41 70 -10
17 -24 41 -32 55 -7 14 -72 126 -143 250 -169 292 -273 471 -284 490 -5 8 -34
58 -63 110 -30 52 -64 111 -76 130 -11 19 -29 51 -39 70 -10 19 -51 90 -90
157 -40 67 -72 126 -72 132 0 6 -4 11 -10 11 -5 0 -10 4 -10 9 0 5 -22 47 -49
93 -64 108 -338 581 -366 633 -60 109 -179 312 -190 323 -11 12 -324 14 -1861
15 -1017 1 -1860 1 -1874 -1z"/>
</g>
</svg>
